<svg id="Logo_NEUCA" data-name="Logo NEUCA" xmlns="http://www.w3.org/2000/svg" width="84.636" height="24.745" viewBox="0 0 84.636 24.745">
  <path id="Path_4664" data-name="Path 4664" d="M754.415,155.874h8.328l1.3,4.556h-10.66Z" transform="translate(-679.405 -140.568)" fill="#fff" fill-rule="evenodd"/>
  <path id="Path_4665" data-name="Path 4665" d="M47.337,15.862V.459H42.388V14.65c0,3.769-.163,5.7-2.588,5.7s-2.556-1.934-2.556-5.7V.459H32.294v15.4c0,2.95.164,5.047,1.442,6.588,1.344,1.638,3.278,2.294,6.063,2.294s4.752-.656,6.1-2.294C47.174,20.909,47.337,18.812,47.337,15.862ZM30.753,24.285V19.728H22.724V14.422h7.352v-4.1H22.724V5.013h8.029V.459H17.775V24.285ZM4.949,10.46V24.285H0V.459H4.785l6.062,13.1V.459H15.8V24.285H11.471Zm61.285,4.714v-.426H61.252c-.1,3.736-1.081,5.506-3.309,5.506-2.753,0-3.966-2.589-3.966-7.866s1.278-7.865,3.966-7.865c2.1,0,3.114,1.605,3.343,5.047h4.884C66.07,3.245,63.219,0,57.779,0,52.076,0,48.9,4.261,48.9,12.388c0,8.292,2.95,12.356,9.078,12.356C63.35,24.744,66.234,21.467,66.234,15.174ZM75.01,7.7l-1.77,7.6-2.083,8.948h-5.31L72.665.425h4.72l4.064,14.2H76.634Zm8.128,12.838L84.2,24.254H78.891l-.87-3.715Z" transform="translate(0 0)" fill="#fff" fill-rule="evenodd"/>
</svg>
